# xmcd
#
# Track frame offsets: 
#        150
#        12825
#        25875
#        43950
#        62625
#        77400
#        102375
#        113100
#
# Disc length: 1682 seconds
#
# Revision: 0
# Processed by: cddbd v1.5.2PL0 Copyright (c) Steve Scherf et al.
# Submitted via: ExactAudioCopy v1.3
#
DISCID=5d069008
DTITLE=Murphy Brothers and The Mack Jackets - Walk Past Our Past
DYEAR=2018
DGENRE=
TTITLE0=I'm Troubled
TTITLE1=Walk Past My Past
TTITLE2=You're Fadin'
TTITLE3=Smile
TTITLE4=The Night We Never Planned
TTITLE5=Like a Breeze
TTITLE6=Do You Wonder
TTITLE7=The Veins of Pelilieu
EXTD=
EXTT0=
EXTT1=
EXTT2=
EXTT3=
EXTT4=
EXTT5=
EXTT6=
EXTT7=
PLAYORDER=
